# xmcd
# 
# Track frame offsets:
#     150
#     2621
#     21314
#     39403
#     53789
#     74110
#     93400
#     107050
#     122363
#     137722
#     155974
#     171413
# 
# Disc length: 2604
# 
# Revision: 0
# Processed by: cddbd v1.5.2PL0 Copyright (c) Steve Scherf et al.
# Submitted via: fre:ac v1.0.27
# 
DISCID=a50a2a0c
DTITLE=The Redemption Center - Land of Plenty
DYEAR=2010
DGENRE=????
TTITLE0=Timothy's Rag
TTITLE1=The Boy Who Shed His Skin
TTITLE2=Land of Plenty
TTITLE3=The Life That Should Have Been Mine
TTITLE4=Parcel of My Heart
TTITLE5=A Man Who Knows a Few Things
TTITLE6=Six Years and a Day
TTITLE7=Showdown
TTITLE8=I'm Afraid of You
TTITLE9=Forever Without You
TTITLE10=Raise Up the Ghost
TTITLE11=In My Mother's House
EXTD=
EXTT0=
EXTT1=
EXTT2=
EXTT3=
EXTT4=
EXTT5=
EXTT6=
EXTT7=
EXTT8=
EXTT9=
EXTT10=
EXTT11=
PLAYORDER=
